<?xml version="1.0" encoding="UTF-8" standalone="no"?>
<svg
   xmlns:dc="http://purl.org/dc/elements/1.1/"
   xmlns:cc="http://creativecommons.org/ns#"
   xmlns:rdf="http://www.w3.org/1999/02/22-rdf-syntax-ns#"
   xmlns:svg="http://www.w3.org/2000/svg"
   xmlns="http://www.w3.org/2000/svg"
   xmlns:sodipodi="http://sodipodi.sourceforge.net/DTD/sodipodi-0.dtd"
   xmlns:inkscape="http://www.inkscape.org/namespaces/inkscape"
   width="4.4000001in"
   height="1in"
   viewBox="0 0 111.76 25.4"
   version="1.1"
   id="svg1328"
   inkscape:version="1.0 (4035a4fb49, 2020-05-01)"
   sodipodi:docname="ontario-search.svg">
  <defs
     id="defs1322" />
  <sodipodi:namedview
     id="base"
     pagecolor="#ffffff"
     bordercolor="#666666"
     borderopacity="1.0"
     inkscape:pageopacity="0.0"
     inkscape:pageshadow="2"
     inkscape:zoom="2.0220794"
     inkscape:cx="80.357455"
     inkscape:cy="74.886919"
     inkscape:document-units="in"
     inkscape:current-layer="layer1"
     inkscape:document-rotation="0"
     showgrid="false"
     showborder="true"
     inkscape:showpageshadow="false"
     inkscape:window-width="1920"
     inkscape:window-height="1017"
     inkscape:window-x="1912"
     inkscape:window-y="-8"
     inkscape:window-maximized="1"
     units="in" />
  <metadata
     id="metadata1325">
    <rdf:RDF>
      <cc:Work
         rdf:about="">
        <dc:format>image/svg+xml</dc:format>
        <dc:type
           rdf:resource="http://purl.org/dc/dcmitype/StillImage" />
        <dc:title></dc:title>
      </cc:Work>
    </rdf:RDF>
  </metadata>
  <g
     inkscape:label="Layer 1"
     inkscape:groupmode="layer"
     id="layer1">
    <g
       id="g1275"
       transform="matrix(1.985147,0,0,1.985147,724.607,-627.18102)">
      <path
         d="m -351.82173,326.7998 -2.37066,-3.94757 v 1.95791 h 0.52916 v 1.98966 h -3.4819 v -1.98966 h 0.52916 v -4.84715 h -0.52916 v -1.98966 h 2.86807 l 2.42358,4.04282 v -2.05316 h -0.52917 v -1.98966 h 3.48191 v 1.98966 h -0.52917 v 4.84715 h 0.52917 v 1.98966 z"
         style="font-style:normal;font-variant:normal;font-weight:normal;font-stretch:normal;font-size:10.5833px;line-height:1.25;font-family:Freshman;-inkscape-font-specification:Freshman;letter-spacing:0px;word-spacing:0px;fill:#5fd38d;fill-opacity:1;stroke:none;stroke-width:0.264583"
         id="path1260" />
      <path
         d="m -328.6329,317.97333 v 1.98966 h -0.4445 l 1.93674,4.84715 h 0.52917 v 1.98966 h -3.38666 v -1.98966 h 0.28575 l -0.127,-0.39158 h -2.33891 l -0.13758,0.39158 h 0.28575 v 1.98966 h -3.37608 v -1.98966 h 0.52917 l 1.93674,-4.84715 h -0.381 v -1.98966 z m -2.94216,4.7519 h 1.12183 l -0.56092,-1.39699 z"
         style="font-style:normal;font-variant:normal;font-weight:normal;font-stretch:normal;font-size:10.5833px;line-height:1.25;font-family:'Book Antiqua';-inkscape-font-specification:'Book Antiqua';letter-spacing:-1.30175px;word-spacing:0px;fill:#00aad4;fill-opacity:1;stroke:none;stroke-width:0.264583"
         id="path1196" />
      <path
         d="m -324.51551,324.81014 h 0.52917 v 1.98966 h -3.48191 v -1.98966 h 0.52917 v -4.84715 h -0.52917 v -1.98966 h 5.46098 l 1.40758,1.41816 v 2.25425 l -0.58208,0.58208 0.58208,0.5715 v 2.01082 h 0.52917 v 1.98966 h -2.95274 v -3.28082 l -0.28575,-0.28575 h -1.2065 z m 0,-3.56657 h 1.2065 l 0.28575,-0.28575 v -0.70908 l -0.28575,-0.28575 h -1.2065 z"
         style="font-style:normal;font-variant:normal;font-weight:normal;font-stretch:normal;font-size:10.5833px;line-height:1.25;font-family:Freshman;-inkscape-font-specification:Freshman;letter-spacing:0px;word-spacing:0px;fill:#00ccff;fill-opacity:1;stroke:none;stroke-width:0.264583"
         id="path1198" />
      <path
         d="m -316.00753,326.7998 h -3.4819 v -1.98966 h 0.52916 v -4.84715 h -0.52916 v -1.98966 h 3.4819 v 1.98966 h -0.52916 v 4.84715 h 0.52916 z"
         style="font-style:normal;font-variant:normal;font-weight:normal;font-stretch:normal;font-size:10.5833px;line-height:1.25;font-family:Freshman;-inkscape-font-specification:Freshman;letter-spacing:0px;word-spacing:0px;fill:#80e5ff;fill-opacity:1;stroke:none;stroke-width:0.264583"
         id="path1200" />
      <path
         d="m -315.41734,319.39149 1.40757,-1.41816 h 3.88408 l 1.40757,1.41816 v 6.00074 l -1.40757,1.40757 h -3.88408 l -1.40757,-1.40757 z m 4.27565,0.85725 -0.27517,-0.28575 h -1.29116 l -0.28575,0.28575 v 4.28624 l 0.28575,0.27516 h 1.29116 l 0.27517,-0.27516 z"
         style="font-style:normal;font-variant:normal;font-weight:normal;font-stretch:normal;font-size:10.5833px;line-height:1.25;font-family:Freshman;-inkscape-font-specification:Freshman;letter-spacing:0px;word-spacing:0px;fill:#55ffdd;fill-opacity:1;stroke:none;stroke-width:0.264583"
         id="path1202" />
      <g
         transform="matrix(0.2016488,0,0,0.24508781,-272.96183,261.5854)"
         id="g1220"
         style="fill:#ffd42a">
        <path
           id="path1216"
           style="fill:#ffd42a;fill-opacity:1;stroke:none;stroke-width:5.83724;stroke-linecap:butt;stroke-linejoin:miter;stroke-miterlimit:4;stroke-dasharray:none;stroke-opacity:1"
           d="m -365.16397,221.7635 -16.37617,28.5718 h 18.59727 l 5.88841,-10.42387 10.24135,-18.14841 z"
           sodipodi:nodetypes="cccccc" />
        <path
           sodipodi:nodetypes="cccc"
           d="m -333.27528,234.97277 -23.68714,4.8e-4 -15.33006,38.99564 z"
           style="opacity:1;fill:#ffd42a;fill-opacity:1;stroke-width:0.996813;stroke-linecap:round"
           id="path1218" />
      </g>
      <path
         d="m -365.01234,319.39149 1.40758,-1.41816 h 3.88407 l 1.40758,1.41816 v 6.00074 l -1.40758,1.40757 h -3.88407 l -1.40758,-1.40757 z m 4.27565,0.85725 -0.27516,-0.28575 h -1.29117 l -0.28575,0.28575 v 4.28624 l 0.28575,0.27516 h 1.29117 l 0.27516,-0.27516 z"
         style="font-style:normal;font-variant:normal;font-weight:normal;font-stretch:normal;font-size:10.5833px;line-height:1.25;font-family:Freshman;-inkscape-font-specification:Freshman;letter-spacing:0px;word-spacing:0px;fill:#2ca05a;fill-opacity:1;stroke:none;stroke-width:0.264583"
         id="path1258" />
      <path
         d="m -333.71397,320.49216 h -1.97907 v -0.52917 h -0.52917 v 4.84715 h 0.52917 v 1.98966 h -3.49249 v -1.98966 h 0.53975 v -4.84715 h -0.53975 v 0.52917 h -1.97908 v -2.51883 h 7.45064 z"
         style="font-style:normal;font-variant:normal;font-weight:normal;font-stretch:normal;font-size:10.5833px;line-height:1.25;font-family:'Book Antiqua';-inkscape-font-specification:'Book Antiqua';letter-spacing:-2.13775px;word-spacing:0px;fill:#0088aa;fill-opacity:1;stroke:none;stroke-width:0.264583"
         id="path1194" />
    </g>
  </g>
</svg>
