<?xml version="1.0" encoding="UTF-8" standalone="no"?>
<!-- Created with Inkscape (http://www.inkscape.org/) -->

<svg
   xmlns:dc="http://purl.org/dc/elements/1.1/"
   xmlns:cc="http://creativecommons.org/ns#"
   xmlns:rdf="http://www.w3.org/1999/02/22-rdf-syntax-ns#"
   xmlns:svg="http://www.w3.org/2000/svg"
   xmlns="http://www.w3.org/2000/svg"
   xmlns:sodipodi="http://sodipodi.sourceforge.net/DTD/sodipodi-0.dtd"
   xmlns:inkscape="http://www.inkscape.org/namespaces/inkscape"
   width="500"
   height="140.325"
   viewBox="0 0 132.29166 37.127656"
   version="1.1"
   id="svg8"
   inkscape:version="0.92.4 (5da689c313, 2019-01-14)"
   sodipodi:docname="tario-logo.svg">
  <defs
     id="defs2" />
  <sodipodi:namedview
     id="base"
     pagecolor="#ffffff"
     bordercolor="#666666"
     borderopacity="1.0"
     inkscape:pageopacity="0.0"
     inkscape:pageshadow="2"
     inkscape:zoom="1"
     inkscape:cx="462.18499"
     inkscape:cy="189.05093"
     inkscape:document-units="mm"
     inkscape:current-layer="text4520"
     showgrid="false"
     showguides="true"
     inkscape:guide-bbox="true"
     inkscape:snap-nodes="false"
     inkscape:window-width="1920"
     inkscape:window-height="1017"
     inkscape:window-x="-8"
     inkscape:window-y="1072"
     inkscape:window-maximized="1"
     showborder="false"
     units="px" />
  <metadata
     id="metadata5">
    <rdf:RDF>
      <cc:Work
         rdf:about="">
        <dc:format>image/svg+xml</dc:format>
        <dc:type
           rdf:resource="http://purl.org/dc/dcmitype/StillImage" />
        <dc:title></dc:title>
      </cc:Work>
    </rdf:RDF>
  </metadata>
  <g
     inkscape:label="Layer 1"
     inkscape:groupmode="layer"
     id="layer1"
     transform="translate(0,-259.87231)">
    <g
       aria-label="TAR⚡O"
       style="font-style:normal;font-weight:normal;font-size:10.58333302px;line-height:1.25;font-family:sans-serif;letter-spacing:0px;word-spacing:0px;fill:#000000;fill-opacity:1;stroke:none;stroke-width:0.26458332"
       id="text4520">
      <g
         id="g4553"
         transform="matrix(3.652018,0,0,3.652018,-175.74265,-220.47466)"
         inkscape:export-xdpi="300"
         inkscape:export-ydpi="300">
        <path
           id="path4526"
           style="font-style:italic;font-variant:normal;font-weight:bold;font-stretch:normal;font-family:'Century Gothic';-inkscape-font-specification:'Century Gothic Bold Italic';fill:#2c89a0;stroke-width:0.26458332"
           d="m 48.297827,132.76507 h 4.640544 l -0.165365,1.35392 h -1.617472 l -0.821655,6.24768 h -1.415934 l 0.821655,-6.24768 h -1.617472 z"
           inkscape:connector-curvature="0" />
        <path
           id="path4528"
           style="font-style:italic;font-variant:normal;font-weight:bold;font-stretch:normal;font-family:'Century Gothic';-inkscape-font-specification:'Century Gothic Bold Italic';fill:#37abc8;stroke-width:0.26458332"
           d="m 56.312842,132.76507 h 1.20406 l 1.891358,7.6016 h -1.384929 l -0.403076,-1.61747 h -3.0024 l -0.873332,1.61747 h -1.53479 z m 0.961181,4.64054 -0.609782,-2.49597 -1.338419,2.49597 z"
           inkscape:connector-curvature="0" />
        <path
           id="path4530"
           style="font-style:italic;font-variant:normal;font-weight:bold;font-stretch:normal;font-family:'Century Gothic';-inkscape-font-specification:'Century Gothic Bold Italic';fill:#5fbcd3;stroke-width:0.26458332"
           d="m 61.620012,132.76507 h 1.328084 q 1.229899,0 1.73116,0.21187 0.625285,0.26355 0.940511,0.7338 0.320394,0.46509 0.320394,1.10588 0,0.79065 -0.470255,1.35909 -0.470256,0.56327 -1.421102,0.78548 l 1.658813,3.40548 h -1.477946 l -1.62264,-3.31763 h -0.134358 l -0.43925,3.31763 h -1.426269 z m 1.018025,3.03857 q 1.173055,-0.005 1.524455,-0.23771 0.356567,-0.23771 0.356567,-0.70797 0,-0.26872 -0.144694,-0.44958 -0.139526,-0.18087 -0.408243,-0.25322 -0.268718,-0.0724 -1.090373,-0.0724 z"
           inkscape:connector-curvature="0" />
        <path
           inkscape:connector-curvature="0"
           id="path4532"
           style="font-style:italic;font-variant:normal;font-weight:bold;font-stretch:normal;font-family:'Century Gothic';-inkscape-font-specification:'Century Gothic Bold Italic';fill:#93a7ac;stroke-width:0.22632003"
           d="m 71.837965,135.34351 h 3.562773 q 0.132609,0 0.238696,0.0532 0.106076,0.0485 0.172393,0.13702 0.07073,0.084 0.09726,0.19892 0.02652,0.1149 0,0.24754 -0.04863,0.2608 -0.274059,0.44646 l -6.100033,5.08336 q -0.106076,0.0883 -0.234275,0.13702 -0.123765,0.0485 -0.251959,0.0485 -0.132608,0 -0.238697,-0.0485 -0.106077,-0.0485 -0.176812,-0.13702 -0.06629,-0.084 -0.09282,-0.20335 -0.02211,-0.11489 0.0044,-0.24754 0.01769,-0.10607 0.07073,-0.19888 l 1.586894,-2.9749 h -3.567192 q -0.132611,0 -0.238697,-0.0485 -0.106077,-0.0485 -0.176813,-0.13259 -0.07073,-0.0882 -0.09726,-0.20336 -0.02211,-0.11931 0.0044,-0.25196 0.02652,-0.12825 0.09726,-0.24309 0.07073,-0.11943 0.176813,-0.20777 l 6.100032,-5.08336 q 0.106077,-0.0882 0.234276,-0.13702 0.128186,-0.0485 0.256379,-0.0485 0.132609,0 0.234276,0.0532 0.106076,0.0485 0.172391,0.13703 0.07073,0.084 0.09726,0.19891 0.02653,0.1149 0,0.24753 -0.02211,0.11049 -0.07073,0.20335 z m -2.66103,5.71545 6.100033,-5.08335 h -4.446835 l 2.033343,-3.81031 -6.100032,5.08336 h 4.446836 z" />
        <path
           inkscape:connector-curvature="0"
           id="path4534"
           style="font-style:italic;font-variant:normal;font-weight:bold;font-stretch:normal;font-family:'Century Gothic';-inkscape-font-specification:'Century Gothic Bold Italic';fill:#87cdde;stroke-width:0.26458332"
           d="m 80.74442,132.57386 q 1.565796,0 2.583822,1.00769 1.018026,1.00769 1.018026,2.55799 0,1.18855 -0.604615,2.24275 -0.599446,1.04904 -1.601969,1.61231 -0.997355,0.56327 -2.294434,0.56327 -1.622639,0 -2.594156,-0.96118 -0.96635,-0.96118 -0.96635,-2.53215 0,-1.78283 1.157552,-3.06441 1.291911,-1.42627 3.302124,-1.42627 z m -0.05168,1.34876 q -0.816488,0 -1.493449,0.39791 -0.671794,0.39274 -1.085205,1.13688 -0.413411,0.73897 -0.413411,1.52962 0,0.93534 0.573608,1.58647 0.573608,0.65112 1.648478,0.65112 1.245402,0 2.113566,-0.8785 0.873332,-0.8785 0.873332,-2.13424 0,-1.03869 -0.61495,-1.66398 -0.609782,-0.62528 -1.601969,-0.62528 z" />
      </g>
    </g>
    <text
       xml:space="preserve"
       style="font-style:normal;font-weight:normal;font-size:10.58333302px;line-height:1.25;font-family:sans-serif;letter-spacing:0px;word-spacing:0px;fill:#000000;fill-opacity:1;stroke:none;stroke-width:0.26458332"
       x="76.464584"
       y="172.11667"
       id="text4524"><tspan
         sodipodi:role="line"
         id="tspan4522"
         x="76.464584"
         y="181.77217"
         style="font-style:normal;font-variant:normal;font-weight:bold;font-stretch:normal;font-family:'Century Gothic';-inkscape-font-specification:'Century Gothic Bold';stroke-width:0.26458332" /></text>
  </g>
</svg>
