<?xml version="1.0" encoding="UTF-8" standalone="no"?>
<!-- Created with Inkscape (http://www.inkscape.org/) -->

<svg
   xmlns:dc="http://purl.org/dc/elements/1.1/"
   xmlns:cc="http://creativecommons.org/ns#"
   xmlns:rdf="http://www.w3.org/1999/02/22-rdf-syntax-ns#"
   xmlns:svg="http://www.w3.org/2000/svg"
   xmlns="http://www.w3.org/2000/svg"
   xmlns:sodipodi="http://sodipodi.sourceforge.net/DTD/sodipodi-0.dtd"
   xmlns:inkscape="http://www.inkscape.org/namespaces/inkscape"
   width="210mm"
   height="297mm"
   viewBox="0 0 210 297"
   version="1.1"
   id="svg8"
   inkscape:version="0.92.4 (5da689c313, 2019-01-14)"
   sodipodi:docname="Logo.svg">
  <defs
     id="defs2" />
  <sodipodi:namedview
     id="base"
     pagecolor="#ffffff"
     bordercolor="#666666"
     borderopacity="1.0"
     inkscape:pageopacity="0.0"
     inkscape:pageshadow="2"
     inkscape:zoom="0.98994949"
     inkscape:cx="119.77288"
     inkscape:cy="920.62446"
     inkscape:document-units="mm"
     inkscape:current-layer="layer1"
     showgrid="false"
     inkscape:window-width="1440"
     inkscape:window-height="837"
     inkscape:window-x="-8"
     inkscape:window-y="-8"
     inkscape:window-maximized="1" />
  <metadata
     id="metadata5">
    <rdf:RDF>
      <cc:Work
         rdf:about="">
        <dc:format>image/svg+xml</dc:format>
        <dc:type
           rdf:resource="http://purl.org/dc/dcmitype/StillImage" />
        <dc:title></dc:title>
      </cc:Work>
    </rdf:RDF>
  </metadata>
  <g
     inkscape:label="Layer 1"
     inkscape:groupmode="layer"
     id="layer1">
    <g
       id="g4572"
       inkscape:export-xdpi="96"
       inkscape:export-ydpi="96">
      <path
         id="path3735"
         d="M 89.53529,46.434814 A 43.164028,43.164028 0 0 1 46.371262,89.598843 43.164028,43.164028 0 0 1 3.2072334,46.434814 43.164028,43.164028 0 0 1 46.371262,3.2707863 43.164028,43.164028 0 0 1 89.53529,46.434814 Z"
         style="fill:#f59b00;stroke:#000000;stroke-width:4.41907072;stroke-miterlimit:4;stroke-dasharray:none;stroke-opacity:1;fill-opacity:1" />
      <g
         transform="translate(-1.5875,1.5875)"
         id="text3715-7"
         style="font-style:normal;font-weight:normal;font-size:55.53270721px;line-height:1.25;font-family:sans-serif;letter-spacing:0px;word-spacing:0px;fill:#000000;fill-opacity:1;stroke:none;stroke-width:1.38831782"
         aria-label="T">
        <path
           inkscape:connector-curvature="0"
           id="path4564"
           style="font-style:normal;font-variant:normal;font-weight:normal;font-stretch:normal;font-family:Stencil;-inkscape-font-specification:Stencil;stroke-width:1.38831782"
           d="m 70.270865,38.473211 v 31.860806 q 0,1.057508 0.406734,1.518472 0.216924,0.271156 0.406733,0.352503 0.189809,0.05423 1.247317,0.325387 1.301548,0.298271 1.301548,1.491357 0,0.705005 -0.705005,1.138854 -0.515196,0.325387 -1.735397,0.325387 H 70.297981 58.204432 57.309618 q -1.193086,0 -1.816744,-0.352502 -0.596543,-0.379618 -0.596543,-1.111739 0,-1.193086 1.301548,-1.491357 1.057508,-0.271156 1.247317,-0.325387 0.189809,-0.08135 0.379618,-0.352503 0.406734,-0.460964 0.406734,-1.518472 V 38.473211 Z m 9.381991,0 v 11.090272 q 0,0.786352 -0.460965,1.274432 -0.43385,0.488081 -1.138855,0.488081 -0.677889,0 -1.138854,-0.43385 -0.433849,-0.460964 -0.569427,-1.247316 l -0.271156,-1.654051 q -0.406734,-2.521749 -1.572704,-4.365608 -0.73212,-1.138854 -1.979437,-1.870975 v -3.280985 z m -30.749068,0 h 7.131398 v 3.280985 q -1.274433,0.732121 -1.979438,1.870975 -1.16597,1.843859 -1.572703,4.365608 l -0.271156,1.654051 q -0.135578,0.786352 -0.596543,1.247316 -0.433849,0.43385 -1.111739,0.43385 -0.705005,0 -1.16597,-0.488081 -0.433849,-0.48808 -0.433849,-1.274432 z" />
      </g>
      <g
         id="text3715-7-1"
         style="font-style:normal;font-weight:normal;font-size:55.53271103px;line-height:1.25;font-family:sans-serif;letter-spacing:0px;word-spacing:0px;fill:#000000;fill-opacity:1;stroke:none;stroke-width:1.38831794"
         aria-label="T">
        <path
           id="path4560"
           style="font-style:normal;font-variant:normal;font-weight:normal;font-stretch:normal;font-family:Stencil;-inkscape-font-specification:Stencil;stroke-width:1.38831794"
           d="m 41.004852,17.371287 v 31.860809 q 0,1.057507 0.406734,1.518472 0.216925,0.271156 0.406734,0.352503 0.189809,0.05423 1.247317,0.325387 1.301548,0.298271 1.301548,1.491357 0,0.705005 -0.705006,1.138854 -0.515196,0.325387 -1.735397,0.325387 H 41.031968 28.938419 28.043604 q -1.193085,0 -1.816744,-0.352502 -0.596542,-0.379619 -0.596542,-1.111739 0,-1.193086 1.301548,-1.491357 1.057507,-0.271156 1.247316,-0.325387 0.189809,-0.08135 0.379618,-0.352503 0.406734,-0.460965 0.406734,-1.518472 V 17.371287 Z m 9.381992,0 V 28.46156 q 0,0.786352 -0.460965,1.274432 -0.43385,0.488081 -1.138855,0.488081 -0.677889,0 -1.138854,-0.433849 -0.433849,-0.460965 -0.569427,-1.247317 l -0.271156,-1.654051 q -0.406734,-2.521749 -1.572704,-4.365608 -0.732121,-1.138855 -1.979437,-1.870975 v -3.280986 z m -30.74907,0 h 7.131398 v 3.280986 q -1.274432,0.73212 -1.979437,1.870975 -1.16597,1.843859 -1.572704,4.365608 l -0.271156,1.654051 q -0.135578,0.786352 -0.596543,1.247317 -0.433849,0.433849 -1.111739,0.433849 -0.705005,0 -1.16597,-0.488081 -0.433849,-0.48808 -0.433849,-1.274432 z" />
      </g>
    </g>
  </g>
</svg>
