<?xml version="1.0" encoding="UTF-8" standalone="no"?>
<!-- Created with Inkscape (http://www.inkscape.org/) -->

<svg
   width="123mm"
   height="16mm"
   viewBox="0 0 123 16"
   version="1.1"
   id="svg5"
   inkscape:version="1.1.1 (3bf5ae0d25, 2021-09-20)"
   sodipodi:docname="culim.svg"
   xmlns:inkscape="http://www.inkscape.org/namespaces/inkscape"
   xmlns:sodipodi="http://sodipodi.sourceforge.net/DTD/sodipodi-0.dtd"
   xmlns="http://www.w3.org/2000/svg"
   xmlns:svg="http://www.w3.org/2000/svg">
  <sodipodi:namedview
     id="namedview7"
     pagecolor="#ffffff"
     bordercolor="#666666"
     borderopacity="1.0"
     inkscape:pageshadow="2"
     inkscape:pageopacity="0.0"
     inkscape:pagecheckerboard="0"
     inkscape:document-units="mm"
     showgrid="false"
     height="15mm"
     inkscape:zoom="1.3273709"
     inkscape:cx="335.62585"
     inkscape:cy="65.166411"
     inkscape:window-width="1920"
     inkscape:window-height="1009"
     inkscape:window-x="-8"
     inkscape:window-y="-8"
     inkscape:window-maximized="1"
     inkscape:current-layer="layer1" />
  <defs
     id="defs2" />
  <g
     inkscape:label="Layer 1"
     inkscape:groupmode="layer"
     id="layer1">
    <g
       aria-label="CULIMBUCHI"
       id="text1508"
       style="font-size:20.2008px;font-family:'Old English Text MT';-inkscape-font-specification:'Old English Text MT';letter-spacing:0px;word-spacing:0px;stroke-width:0.505022"
       transform="translate(-29.511166,-91.932616)">
      <g
         id="g20919"
         transform="matrix(0.89034172,0,0,0.89034172,3.2763882,10.136002)">
        <path
           d="m 42.665271,98.917072 h -4.625984 v -2.141284 l -0.52522,-0.545422 h -2.464498 l -0.545422,0.545422 v 8.181322 l 0.545422,0.52522 h 2.464498 l 0.52522,-0.52522 v -2.02008 h 4.625984 v 3.65635 l -2.686707,2.6867 h -7.413693 l -2.686707,-2.6867 V 95.139523 l 2.686707,-2.706907 h 7.413693 l 2.686707,2.706907 z"
           style="-inkscape-font-specification:Freshman;fill:#1e7175;fill-opacity:1"
           id="path8886" />
        <path
           d="m 57.694632,106.57318 -2.686706,2.7069 h -7.413694 l -2.686706,-2.6867 V 96.230366 h -1.01004 v -3.79775 h 6.646063 v 3.79775 h -1.01004 v 8.726744 l 0.545421,0.52522 h 2.464498 l 0.525221,-0.52522 v -8.726744 h -1.01004 v -3.79775 h 6.646063 v 3.777549 h -1.01004 z"
           style="-inkscape-font-specification:Freshman;fill:#8af1f7;fill-opacity:1"
           id="path8888" />
        <path
           d="m 65.471932,96.230366 v 9.251964 h 3.03012 v -1.01004 h 3.77755 v 4.80779 H 59.835909 v -3.79775 h 1.01004 v -9.251964 h -1.01004 v -3.79775 h 6.646063 v 3.79775 z"
           style="-inkscape-font-specification:Freshman;fill:#40edf5;fill-opacity:1"
           id="path8890" />
        <path
           d="m 79.79427,109.28008 h -6.646063 v -3.79775 h 1.01004 v -9.251964 h -1.01004 v -3.79775 h 6.646063 v 3.79775 h -1.01004 v 9.251964 h 1.01004 z"
           style="-inkscape-font-specification:Freshman;fill:#427375;fill-opacity:1"
           id="path8892" />
        <path
           d="m 90.238047,107.1994 -3.676546,-6.08044 v 4.36337 h 1.01004 v 3.79775 h -6.646063 v -3.79775 h 1.01004 v -9.251964 h -1.01004 v -3.79775 h 5.413814 l 3.898755,6.524858 3.898754,-6.524858 h 5.413814 v 3.79775 h -1.01004 v 9.251964 h 1.01004 v 3.79775 h -6.646063 v -3.79775 h 1.01004 v -4.36337 z"
           style="-inkscape-font-specification:Freshman;fill:#32bbc2;fill-opacity:1"
           id="path8894" />
        <path
           d="m 113.79216,101.66438 v 4.929 l -2.68671,2.6867 h -10.42361 v -3.79775 h 1.01004 v -9.251964 h -1.01004 v -3.79775 h 10.42361 l 2.68671,2.706907 v 4.30277 l -1.11105,1.111047 z m -4.62599,1.33325 -0.54542,-0.52522 h -2.30289 v 3.00992 h 2.30289 l 0.54542,-0.52522 z m 0,-6.221842 -0.54542,-0.545422 h -2.30289 v 2.444297 h 2.30289 l 0.54542,-0.545422 z"
           style="-inkscape-font-specification:Freshman;fill:#1e7175;fill-opacity:1"
           id="path8896" />
        <path
           d="m 128.70032,106.57318 -2.68671,2.7069 h -7.41369 l -2.68671,-2.6867 V 96.230366 h -1.01004 v -3.79775 h 6.64607 v 3.79775 h -1.01004 v 8.726744 l 0.54542,0.52522 h 2.4645 l 0.52522,-0.52522 v -8.726744 h -1.01004 v -3.79775 h 6.64606 v 3.777549 h -1.01004 z"
           style="-inkscape-font-specification:Freshman;fill:#40edf5;fill-opacity:1"
           id="path8898" />
        <path
           d="m 143.6287,98.917072 h -4.62599 v -2.141284 l -0.52522,-0.545422 h -2.4645 l -0.54542,0.545422 v 8.181322 l 0.54542,0.52522 h 2.4645 l 0.52522,-0.52522 v -2.02008 h 4.62599 v 3.65635 l -2.68671,2.6867 h -7.41369 l -2.68671,-2.6867 V 95.139523 l 2.68671,-2.706907 h 7.41369 l 2.68671,2.706907 z"
           style="-inkscape-font-specification:Freshman;fill:#32bbc2;fill-opacity:1"
           id="path8900" />
        <path
           d="m 153.78967,105.48233 v -2.78771 h -3.29273 v 2.78771 h 1.01004 v 3.79775 h -6.64607 v -3.79775 h 1.01004 v -9.251964 h -1.01004 v -3.79775 h 6.64607 v 3.79775 h -1.01004 v 2.302891 h 3.29273 v -2.302891 h -1.01004 v -3.79775 h 6.64606 v 3.79775 h -1.01004 v 9.251964 h 1.01004 v 3.79775 h -6.64606 v -3.79775 z"
           style="-inkscape-font-specification:Freshman;fill:#8af1f7;fill-opacity:1"
           id="path8902" />
        <path
           d="m 167.20297,109.28008 h -6.64606 v -3.79775 h 1.01004 v -9.251964 h -1.01004 v -3.79775 h 6.64606 v 3.79775 h -1.01004 v 9.251964 h 1.01004 z"
           style="-inkscape-font-specification:Freshman;fill:#ffe680;fill-opacity:1"
           id="path8904" />
      </g>
    </g>
  </g>
</svg>
