<?xml version="1.0" encoding="UTF-8" standalone="no"?>
<!-- Created with Inkscape (http://www.inkscape.org/) -->

<svg
   xmlns:dc="http://purl.org/dc/elements/1.1/"
   xmlns:cc="http://creativecommons.org/ns#"
   xmlns:rdf="http://www.w3.org/1999/02/22-rdf-syntax-ns#"
   xmlns:svg="http://www.w3.org/2000/svg"
   xmlns="http://www.w3.org/2000/svg"
   xmlns:sodipodi="http://sodipodi.sourceforge.net/DTD/sodipodi-0.dtd"
   xmlns:inkscape="http://www.inkscape.org/namespaces/inkscape"
   width="622.52502"
   height="72"
   viewBox="0 0 164.70974 19.050001"
   version="1.1"
   id="svg8"
   inkscape:version="0.92.4 (5da689c313, 2019-01-14)"
   sodipodi:docname="nobaddays.svg">
  <defs
     id="defs2" />
  <sodipodi:namedview
     id="base"
     pagecolor="#ffffff"
     bordercolor="#666666"
     borderopacity="1.0"
     inkscape:pageopacity="0.0"
     inkscape:pageshadow="2"
     inkscape:zoom="1"
     inkscape:cx="-68.502322"
     inkscape:cy="113.95404"
     inkscape:document-units="mm"
     inkscape:current-layer="g882"
     showgrid="false"
     showguides="true"
     inkscape:guide-bbox="true"
     units="px"
     inkscape:window-width="1920"
     inkscape:window-height="1017"
     inkscape:window-x="-8"
     inkscape:window-y="1072"
     inkscape:window-maximized="1" />
  <metadata
     id="metadata5">
    <rdf:RDF>
      <cc:Work
         rdf:about="">
        <dc:format>image/svg+xml</dc:format>
        <dc:type
           rdf:resource="http://purl.org/dc/dcmitype/StillImage" />
        <dc:title></dc:title>
      </cc:Work>
    </rdf:RDF>
  </metadata>
  <g
     inkscape:label="Layer 1"
     inkscape:groupmode="layer"
     id="layer1"
     transform="translate(0,-277.94999)">
    <g
       id="g882">
      <g
         id="g956"
         transform="matrix(0.98686153,0,0,0.98686153,-22.738016,152.40213)">
        <path
           id="path844"
           style="font-style:normal;font-variant:normal;font-weight:normal;font-stretch:normal;font-size:22.57777786px;line-height:1.25;font-family:'Cooper Black';-inkscape-font-specification:'Cooper Black, ';letter-spacing:0px;word-spacing:0px;fill:#2c89a0;fill-opacity:1;stroke:none;stroke-width:0.26458332"
           d="m 50.149563,130.86844 q 2.833247,0 4.949913,1.62057 1.43316,1.11346 2.326129,2.88837 0.87092,1.76389 0.87092,3.52778 0,2.60173 -1.719792,4.65225 -1.455208,1.74184 -3.803385,2.50252 -1.444184,0.46302 -2.899392,0.46302 -1.907205,0 -3.649046,-0.79375 -2.105642,-0.95911 -3.296267,-2.89939 -1.157552,-1.87413 -1.157552,-4.13411 0,-2.62379 1.488281,-4.63021 1.322917,-1.78594 3.560851,-2.62379 1.499305,-0.57326 3.32934,-0.57326 z m -1.047309,3.16397 q -0.926041,0 -1.466232,0.82683 -0.418924,0.61736 -0.418924,1.46623 0,1.24575 0.507118,2.88837 0.507118,1.63159 1.278819,2.89939 0.341754,0.54019 0.837848,0.8599 0.507118,0.3197 1.02526,0.3197 0.837847,0 1.344965,-0.62838 0.518143,-0.62839 0.518143,-1.65365 0,-1.33394 -0.429948,-2.87734 -0.429948,-1.54341 -1.113455,-2.63481 -0.418924,-0.67249 -0.970139,-1.05834 -0.551215,-0.38585 -1.113455,-0.4079 z"
           inkscape:connector-curvature="0" />
        <path
           id="path846"
           style="font-style:normal;font-variant:normal;font-weight:normal;font-stretch:normal;font-size:22.57777786px;line-height:1.25;font-family:'Cooper Black';-inkscape-font-specification:'Cooper Black, ';letter-spacing:0px;word-spacing:0px;fill:#c8ab37;fill-opacity:1;stroke:none;stroke-width:0.26458332"
           d="m 70.886282,145.15593 -1.477256,0.011 q -1.554428,0.022 -2.271007,0.0661 -0.63941,0.0551 -0.915018,0.0551 -0.672482,0 -1.069357,-0.34175 -0.385851,-0.34175 -0.385851,-0.8158 0,-0.30868 0.143316,-0.48507 0.143316,-0.17639 0.694531,-0.55121 0.319705,-0.22049 0.440972,-0.68351 0.121268,-0.47405 0.264584,-2.01745 0.209461,-2.4033 0.209461,-5.92005 0,-1.28984 -0.176388,-1.70877 -0.165365,-0.42995 -0.79375,-0.70555 -0.727605,-0.30868 -0.727605,-0.904 0,-0.48507 0.429948,-0.79375 0.440973,-0.30868 1.12448,-0.30868 0.374826,0 0.959114,0.0331 0.970139,0.0441 2.094618,0.0441 0.826823,0 3.25217,-0.0661 0.760677,-0.0221 1.378039,-0.0221 1.466232,0 2.359201,0.24253 0.903993,0.23151 1.565451,0.79375 1.080382,0.91502 1.080382,2.4474 0,0.76068 -0.319705,1.48828 -0.319704,0.71658 -0.859895,1.14653 -0.385851,0.30868 -0.385851,0.56224 0,0.27561 0.463021,0.46302 0.903993,0.3638 1.642621,1.2237 0.760677,0.89297 0.760677,2.23793 0,1.5875 -1.157552,2.89939 -1.532378,1.73082 -4.530989,1.73082 -0.4079,0 -2.006424,-0.0551 -1.455208,-0.0551 -1.785938,-0.0661 z m 0.760678,-11.96137 v 2.27101 q 0,0.54019 0.132291,0.76067 0.143316,0.22049 0.48507,0.22049 0.815798,0 1.201649,-0.49609 0.385851,-0.50712 0.385851,-1.57648 0,-1.03628 -0.396875,-1.59852 -0.396875,-0.57327 -1.124479,-0.57327 -0.385851,0 -0.540191,0.22049 -0.143316,0.20946 -0.143316,0.7717 z m 0,6.35 v 1.04731 q 0,1.44418 0.209461,1.91823 0.209462,0.47404 0.848872,0.47404 1.675694,0 1.675694,-1.96232 0,-2.4474 -1.874132,-2.4474 -0.485069,0 -0.672482,0.20946 -0.187413,0.20946 -0.187413,0.76068 z"
           inkscape:connector-curvature="0" />
        <path
           id="path848"
           style="font-style:normal;font-variant:normal;font-weight:normal;font-stretch:normal;font-size:22.57777786px;line-height:1.25;font-family:'Cooper Black';-inkscape-font-specification:'Cooper Black, ';letter-spacing:0px;word-spacing:0px;fill:#c8ab37;fill-opacity:1;stroke:none;stroke-width:0.26458332"
           d="m 95.167314,138.6075 2.083594,4.46484 q 0.297656,0.61737 0.496093,0.8158 0.198438,0.18742 0.606337,0.25356 0.79375,0.12127 0.79375,0.80478 0,0.80477 -0.970139,1.15755 -0.970139,0.35278 -3.175,0.35278 -2.491493,0 -3.693142,-0.20947 -0.551215,-0.0992 -0.881945,-0.39687 -0.319704,-0.30868 -0.319704,-0.73863 0,-0.33073 0.165364,-0.50712 0.176389,-0.18741 0.63941,-0.34175 0.518142,-0.17639 0.518142,-0.59531 0,-0.73863 -0.892969,-0.87092 -0.959114,-0.13229 -2.700954,-0.13229 -1.466233,0 -1.752865,0.17638 -0.176389,0.11025 -0.308681,0.39688 -0.132291,0.28663 -0.132291,0.55121 0,0.24254 0.08819,0.31971 0.09922,0.0661 0.617361,0.23151 0.672483,0.19844 0.672483,0.79375 0,1.31189 -3.141927,1.31189 -1.785938,0 -2.623785,-0.24253 -0.771701,-0.23151 -0.771701,-1.01424 0,-0.34175 0.165364,-0.52917 0.176389,-0.18741 0.617361,-0.34175 0.71658,-0.25356 1.080382,-0.70555 0.374827,-0.46303 1.058334,-1.96233 l 1.554427,-3.40651 q 0.859896,-1.87413 1.146528,-2.80017 0.297656,-0.93707 0.30868,-1.83004 0.01102,-0.94809 0.110243,-1.31189 0.110243,-0.37483 0.474045,-0.72761 0.760677,-0.7717 1.940278,-0.7717 1.113455,0 2.127691,0.87092 1.411111,1.19063 4.101042,6.93429 z m -7.672917,1.38906 h 2.160764 q 0.595313,0 0.595313,-0.26458 0,-0.3638 -0.826823,-1.78594 -0.374827,-0.65043 -0.573264,-0.87092 -0.198438,-0.22048 -0.418924,-0.22048 -0.396875,0 -0.661458,0.73862 -0.0441,0.0992 -0.319705,0.78273 -0.463021,1.12448 -0.463021,1.34497 0,0.2756 0.507118,0.2756 z"
           inkscape:connector-curvature="0" />
        <path
           id="path852"
           style="font-style:normal;font-variant:normal;font-weight:normal;font-stretch:normal;font-size:22.57777786px;line-height:1.25;font-family:'Cooper Black';-inkscape-font-specification:'Cooper Black, ';letter-spacing:0px;word-spacing:0px;fill:#2ca05a;fill-opacity:1;stroke:none;stroke-width:0.26458332"
           d="m 127.95911,146.2253 h -0.79375 q -0.69453,0 -1.55443,0.0661 -0.54019,0.0441 -0.74965,0.0441 -0.73863,0 -1.20165,-0.34175 -0.46302,-0.34176 -0.46302,-0.89297 0,-0.38585 0.19844,-0.59532 0.20946,-0.22048 0.67248,-0.35277 0.44097,-0.11025 0.59531,-0.35278 0.15434,-0.25356 0.24254,-0.97014 0.0882,-0.82682 0.15434,-3.2191 0.0772,-2.39227 0.0772,-4.75147 0,-0.92604 -0.14332,-1.23473 -0.14331,-0.30868 -0.67248,-0.49609 -0.76068,-0.28663 -0.76068,-0.98116 0,-0.54019 0.51815,-0.83785 0.52916,-0.30868 1.46623,-0.30868 0.30868,0 0.7276,0.011 0.92604,0.0331 1.34497,0.0331 1.57647,0 3.56085,-0.0992 0.41892,-0.022 1.04731,-0.022 2.52456,0 3.9908,0.57326 2.18281,0.8599 3.28524,2.88837 0.98116,1.78594 0.98116,4.25538 0,1.24575 -0.3638,2.50252 -0.3638,1.24575 -0.98116,2.16077 -1.27882,1.85208 -3.52778,2.60173 -1.32292,0.44097 -2.82222,0.44097 l -1.33394,-0.0441 -1.14653,-0.0331 q -1.33394,-0.0441 -2.34818,-0.0441 z m 2.3151,-11.95035 v 8.53281 q 0,0.69453 0.29766,0.99219 0.29766,0.28663 0.99219,0.28663 3.2191,0 3.2191,-4.89479 0,-2.70096 -0.74966,-4.18924 -0.82682,-1.64262 -2.80017,-1.64262 -0.52917,0 -0.74965,0.20946 -0.20947,0.20947 -0.20947,0.70556 z"
           inkscape:connector-curvature="0" />
        <path
           id="path856"
           style="font-style:normal;font-variant:normal;font-weight:normal;font-stretch:normal;font-size:22.57777786px;line-height:1.25;font-family:'Cooper Black';-inkscape-font-specification:'Cooper Black, ';letter-spacing:0px;word-spacing:0px;fill:#2ca05a;fill-opacity:1;stroke:none;stroke-width:0.26458332"
           d="m 161.63836,130.94561 q 2.16077,0 3.29627,0.23151 0.51814,0.0992 0.82682,0.39687 0.31971,0.28664 0.31971,0.66146 0,0.28663 -0.24254,0.58429 -0.35277,0.452 -0.35277,0.65043 0,0.39688 0.62838,1.2678 0.4079,0.56224 0.7717,0.56224 0.23151,0 0.452,-0.16537 0.22049,-0.17638 0.57326,-0.61736 0.42995,-0.54019 0.42995,-0.85989 0,-0.19844 -0.0551,-0.29766 -0.0441,-0.0992 -0.35278,-0.47404 -0.22048,-0.25356 -0.22048,-0.68351 0,-1.24575 3.37343,-1.24575 1.90721,0 2.48047,0.17639 0.3638,0.11024 0.59532,0.41893 0.24253,0.30868 0.24253,0.66145 0,0.452 -0.27561,0.68351 -0.27561,0.23151 -0.95911,0.35278 -0.62839,0.12127 -1.09141,0.48507 -0.46302,0.35278 -1.69774,1.67569 -1.49931,1.62058 -1.87413,2.39228 -0.36381,0.76067 -0.36381,2.28203 0,1.27882 0.0992,2.37022 0.0551,0.67249 0.20946,0.93707 0.15434,0.25356 0.63941,0.50712 0.80478,0.41892 0.80478,1.04731 0,1.4993 -4.43177,1.4993 -1.81901,0 -3.43959,-0.35278 -1.36701,-0.29765 -1.36701,-1.1796 0,-0.6835 0.83785,-0.98116 0.62838,-0.22049 0.78272,-0.56224 0.35278,-0.76068 0.35278,-3.59392 0,-0.88195 -0.17639,-1.36702 -0.17639,-0.49609 -0.7717,-1.27882 -1.24575,-1.62057 -2.56866,-2.92144 -0.57327,-0.56224 -1.10243,-0.76067 -0.74966,-0.27561 -0.904,-0.4079 -0.30868,-0.26459 -0.30868,-0.70556 0,-0.73863 1.11346,-1.05833 1.11345,-0.33073 3.72621,-0.33073 z"
           inkscape:connector-curvature="0" />
        <path
           id="path842"
           style="font-style:normal;font-variant:normal;font-weight:normal;font-stretch:normal;font-size:22.57777786px;line-height:1.25;font-family:'Cooper Black';-inkscape-font-specification:'Cooper Black, ';letter-spacing:0px;word-spacing:0px;fill:#2c89a0;fill-opacity:1;stroke:none;stroke-width:0.26458332"
           d="m 29.258504,129.58962 5.490104,4.80659 q 0.771702,0.67249 1.113455,0.67249 0.573264,0 0.573264,-1.2237 0,-1.38906 -0.165365,-1.89618 -0.165364,-0.50712 -0.694531,-0.76068 -0.429948,-0.20946 -0.606337,-0.44097 -0.176389,-0.24254 -0.176389,-0.61736 0,-0.92605 1.267796,-1.19063 0.518142,-0.11024 1.807986,-0.11024 1.66467,0 2.30408,0.19844 1.014236,0.30868 1.014236,1.16857 0,0.71658 -0.826823,1.08038 -0.330729,0.14332 -0.451997,0.25356 -0.121267,0.11025 -0.209462,0.33073 -0.297656,0.72761 -0.30868,2.75608 v 3.59392 q 0,0.82683 0.01102,2.25999 0.01102,1.94027 -0.23151,2.80017 -0.297656,1.06936 -1.080382,1.06936 -0.341754,0 -0.595313,-0.14332 -0.242534,-0.14332 -0.815798,-0.66146 l -6.537414,-5.8539 q -0.683506,-0.61737 -1.135503,-0.61737 -0.672483,0 -0.672483,1.86311 0,1.53238 0.165365,2.09462 0.176389,0.56224 0.705556,0.82682 0.738628,0.36381 0.738628,0.94809 0,1.53238 -3.296267,1.53238 -1.488282,0 -2.315105,-0.38585 -0.815798,-0.39687 -0.815798,-1.11345 0,-0.37483 0.15434,-0.56224 0.15434,-0.18742 0.694531,-0.50712 0.518143,-0.30868 0.628386,-1.09141 0.187413,-1.42213 0.187413,-4.09001 0,-2.84428 -0.330729,-4.14514 -0.121268,-0.47405 -0.308681,-0.70556 -0.187413,-0.23151 -0.617361,-0.44097 -0.496094,-0.24254 -0.694531,-0.47405 -0.187413,-0.23151 -0.187413,-0.56224 0,-1.05833 1.81901,-1.33394 0.617361,-0.0882 2.160764,-0.0882 0.881944,0 1.278819,0.14331 0.4079,0.1323 0.959115,0.61737 z"
           inkscape:connector-curvature="0" />
        <path
           id="path823"
           style="font-style:normal;font-variant:normal;font-weight:normal;font-stretch:normal;font-size:22.57777786px;line-height:1.25;font-family:'Cooper Black';-inkscape-font-specification:'Cooper Black, ';letter-spacing:0px;word-spacing:0px;fill:#87cdde;fill-opacity:1;stroke:none;stroke-width:0.26458332"
           d="m 30.316838,129.06046 5.490105,4.80659 q 0.771701,0.67249 1.113454,0.67249 0.573264,0 0.573264,-1.2237 0,-1.38906 -0.165364,-1.89618 -0.165365,-0.50712 -0.694531,-0.76068 -0.429948,-0.20946 -0.606337,-0.44097 -0.176389,-0.24254 -0.176389,-0.61736 0,-0.92604 1.267795,-1.19063 0.518142,-0.11024 1.807986,-0.11024 1.66467,0 2.30408,0.19844 1.014236,0.30868 1.014236,1.16857 0,0.71658 -0.826823,1.08038 -0.330729,0.14332 -0.451996,0.25356 -0.121268,0.11025 -0.209462,0.33073 -0.297656,0.72761 -0.308681,2.75608 v 3.59392 q 0,0.82683 0.01103,2.25999 0.01102,1.94027 -0.231511,2.80017 -0.297656,1.06936 -1.080382,1.06936 -0.341753,0 -0.595312,-0.14332 -0.242535,-0.14332 -0.815799,-0.66146 l -6.537413,-5.8539 q -0.683507,-0.61736 -1.135504,-0.61736 -0.672482,0 -0.672482,1.8631 0,1.53238 0.165364,2.09462 0.176389,0.56224 0.705556,0.82682 0.738628,0.36381 0.738628,0.94809 0,1.53238 -3.296267,1.53238 -1.488281,0 -2.315104,-0.38585 -0.815799,-0.39687 -0.815799,-1.11345 0,-0.37483 0.15434,-0.56224 0.154341,-0.18742 0.694532,-0.50712 0.518142,-0.30868 0.628385,-1.09141 0.187413,-1.42213 0.187413,-4.09001 0,-2.84428 -0.330729,-4.14514 -0.121267,-0.47405 -0.30868,-0.70556 -0.187414,-0.23151 -0.617362,-0.44097 -0.496093,-0.24254 -0.694531,-0.47405 -0.187413,-0.23151 -0.187413,-0.56224 0,-1.05833 1.81901,-1.33394 0.617362,-0.0882 2.160764,-0.0882 0.881945,0 1.27882,0.14331 0.407899,0.1323 0.959114,0.61737 z"
           inkscape:connector-curvature="0" />
        <path
           id="path825"
           style="font-style:normal;font-variant:normal;font-weight:normal;font-stretch:normal;font-size:22.57777786px;line-height:1.25;font-family:'Cooper Black';-inkscape-font-specification:'Cooper Black, ';letter-spacing:0px;word-spacing:0px;fill:#87cdde;fill-opacity:1;stroke:none;stroke-width:0.26458332"
           d="m 51.207898,130.33928 q 2.833246,0 4.949913,1.62057 1.433159,1.11346 2.326128,2.88837 0.87092,1.76389 0.87092,3.52778 0,2.60173 -1.719791,4.65225 -1.455209,1.74184 -3.803386,2.50252 -1.444184,0.46302 -2.899392,0.46302 -1.907205,0 -3.649045,-0.79375 -2.105643,-0.95911 -3.296268,-2.89939 -1.157552,-1.87413 -1.157552,-4.13411 0,-2.62379 1.488282,-4.63021 1.322916,-1.78594 3.56085,-2.62379 1.499306,-0.57326 3.329341,-0.57326 z m -1.047309,3.16397 q -0.926042,0 -1.466233,0.82683 -0.418924,0.61736 -0.418924,1.46623 0,1.24575 0.507118,2.88837 0.507118,1.6316 1.27882,2.89939 0.341753,0.54019 0.837847,0.8599 0.507118,0.3197 1.02526,0.3197 0.837848,0 1.344966,-0.62838 0.518142,-0.62839 0.518142,-1.65365 0,-1.33394 -0.429948,-2.87734 -0.429948,-1.54341 -1.113455,-2.63481 -0.418923,-0.67249 -0.970139,-1.05834 -0.551215,-0.38585 -1.113454,-0.4079 z"
           inkscape:connector-curvature="0" />
        <path
           id="path827"
           style="font-style:normal;font-variant:normal;font-weight:normal;font-stretch:normal;font-size:22.57777786px;line-height:1.25;font-family:'Cooper Black';-inkscape-font-specification:'Cooper Black, ';letter-spacing:0px;word-spacing:0px;fill:#decd87;fill-opacity:1;stroke:none;stroke-width:0.26458332"
           d="m 71.944617,144.62677 -1.477257,0.011 q -1.554427,0.022 -2.271007,0.0661 -0.63941,0.0551 -0.915017,0.0551 -0.672483,0 -1.069358,-0.34175 -0.385851,-0.34175 -0.385851,-0.8158 0,-0.30868 0.143316,-0.48507 0.143316,-0.17639 0.694531,-0.55121 0.319705,-0.22049 0.440973,-0.68351 0.121267,-0.47405 0.264583,-2.01745 0.209462,-2.4033 0.209462,-5.92005 0,-1.28984 -0.176389,-1.70877 -0.165365,-0.42995 -0.79375,-0.70555 -0.727604,-0.30868 -0.727604,-0.904 0,-0.48507 0.429948,-0.79375 0.440972,-0.30868 1.124479,-0.30868 0.374826,0 0.959114,0.0331 0.970139,0.0441 2.094619,0.0441 0.826822,0 3.25217,-0.0661 0.760677,-0.0221 1.378038,-0.0221 1.466233,0 2.359201,0.24253 0.903993,0.23151 1.565452,0.79375 1.080382,0.91502 1.080382,2.4474 0,0.76068 -0.319705,1.48828 -0.319705,0.71658 -0.859896,1.14653 -0.385851,0.30868 -0.385851,0.56224 0,0.27561 0.463021,0.46302 0.903993,0.3638 1.642622,1.2237 0.760677,0.89297 0.760677,2.23793 0,1.5875 -1.157552,2.89939 -1.532379,1.73082 -4.53099,1.73082 -0.407899,0 -2.006424,-0.0551 -1.455208,-0.0551 -1.785937,-0.0661 z m 0.760677,-11.96137 v 2.27101 q 0,0.54019 0.132292,0.76067 0.143316,0.22049 0.485069,0.22049 0.815799,0 1.201649,-0.49609 0.385851,-0.50712 0.385851,-1.57648 0,-1.03628 -0.396875,-1.59852 -0.396875,-0.57327 -1.124479,-0.57327 -0.385851,0 -0.540191,0.22049 -0.143316,0.20946 -0.143316,0.7717 z m 0,6.35 v 1.04731 q 0,1.44418 0.209462,1.91823 0.209462,0.47404 0.848871,0.47404 1.675695,0 1.675695,-1.96232 0,-2.4474 -1.874132,-2.4474 -0.48507,0 -0.672483,0.20946 -0.187413,0.20947 -0.187413,0.76068 z"
           inkscape:connector-curvature="0" />
        <path
           id="path829"
           style="font-style:normal;font-variant:normal;font-weight:normal;font-stretch:normal;font-size:22.57777786px;line-height:1.25;font-family:'Cooper Black';-inkscape-font-specification:'Cooper Black, ';letter-spacing:0px;word-spacing:0px;fill:#decd87;fill-opacity:1;stroke:none;stroke-width:0.26458332"
           d="m 96.225648,138.07834 2.083594,4.46485 q 0.297656,0.61736 0.496094,0.81579 0.198437,0.18742 0.606336,0.25356 0.793748,0.12127 0.793748,0.80478 0,0.80477 -0.970136,1.15755 -0.970139,0.35278 -3.175,0.35278 -2.491493,0 -3.693143,-0.20946 -0.551215,-0.0992 -0.881944,-0.39688 -0.319705,-0.30868 -0.319705,-0.73863 0,-0.33073 0.165364,-0.50712 0.176389,-0.18741 0.63941,-0.34175 0.518143,-0.17639 0.518143,-0.59531 0,-0.73863 -0.892969,-0.87092 -0.959115,-0.13229 -2.700955,-0.13229 -1.466233,0 -1.752865,0.17638 -0.176389,0.11025 -0.30868,0.39688 -0.132292,0.28663 -0.132292,0.55121 0,0.24254 0.08819,0.31971 0.09922,0.0662 0.617361,0.23151 0.672482,0.19844 0.672482,0.79375 0,1.31189 -3.141927,1.31189 -1.785937,0 -2.623784,-0.24253 -0.771702,-0.23151 -0.771702,-1.01424 0,-0.34175 0.165365,-0.52916 0.176389,-0.18742 0.617361,-0.34176 0.71658,-0.25356 1.080382,-0.70555 0.374826,-0.46302 1.058333,-1.96233 l 1.554427,-3.40651 q 0.859896,-1.87413 1.146528,-2.80017 0.297656,-0.93707 0.308681,-1.83004 0.01102,-0.94809 0.110243,-1.31189 0.110243,-0.37483 0.474045,-0.72761 0.760677,-0.7717 1.940278,-0.7717 1.113454,0 2.12769,0.87092 1.411112,1.19063 4.101042,6.93429 z m -7.672917,1.38906 h 2.160764 q 0.595313,0 0.595313,-0.26458 0,-0.3638 -0.826823,-1.78594 -0.374826,-0.65043 -0.573264,-0.87092 -0.198437,-0.22048 -0.418924,-0.22048 -0.396875,0 -0.661458,0.73863 -0.0441,0.0992 -0.319705,0.78272 -0.463021,1.12448 -0.463021,1.34497 0,0.2756 0.507118,0.2756 z"
           inkscape:connector-curvature="0" />
        <path
           id="path850"
           style="font-style:normal;font-variant:normal;font-weight:normal;font-stretch:normal;font-size:22.57777786px;line-height:1.25;font-family:'Cooper Black';-inkscape-font-specification:'Cooper Black, ';letter-spacing:0px;word-spacing:0px;fill:#c8ab37;fill-opacity:1;stroke:none;stroke-width:0.26458332"
           d="m 104.19071,143.0503 h -0.79375 q -0.69453,0 -1.55443,0.0661 -0.54019,0.0441 -0.74965,0.0441 -0.73863,0 -1.201651,-0.34175 -0.46302,-0.34176 -0.46302,-0.89297 0,-0.38585 0.198437,-0.59532 0.209462,-0.22048 0.672484,-0.35277 0.44097,-0.11025 0.59531,-0.35278 0.15434,-0.25356 0.24254,-0.97014 0.0882,-0.82682 0.15434,-3.2191 0.0772,-2.39227 0.0772,-4.75147 0,-0.92604 -0.14332,-1.23473 -0.14332,-0.30868 -0.67248,-0.49609 -0.760679,-0.28663 -0.760679,-0.98116 0,-0.54019 0.518139,-0.83785 0.52917,-0.30868 1.46624,-0.30868 0.30868,0 0.7276,0.011 0.92604,0.0331 1.34497,0.0331 1.57647,0 3.56085,-0.0992 0.41892,-0.022 1.0473,-0.022 2.52457,0 3.9908,0.57326 2.18282,0.8599 3.28525,2.88837 0.98116,1.78594 0.98116,4.25538 0,1.24575 -0.3638,2.50252 -0.3638,1.24575 -0.98117,2.16077 -1.27882,1.85208 -3.52777,2.60173 -1.32292,0.44097 -2.82223,0.44097 l -1.33394,-0.0441 -1.14652,-0.0331 q -1.33395,-0.0441 -2.34818,-0.0441 z m 2.3151,-11.95035 v 8.53281 q 0,0.69453 0.29766,0.99219 0.29766,0.28663 0.99219,0.28663 3.21909,0 3.21909,-4.89479 0,-2.70096 -0.74965,-4.18924 -0.82682,-1.64262 -2.80017,-1.64262 -0.52917,0 -0.74966,0.20946 -0.20946,0.20947 -0.20946,0.70556 z"
           inkscape:connector-curvature="0" />
        <path
           id="path831"
           style="font-style:normal;font-variant:normal;font-weight:normal;font-stretch:normal;font-size:22.57777786px;line-height:1.25;font-family:'Cooper Black';-inkscape-font-specification:'Cooper Black, ';letter-spacing:0px;word-spacing:0px;fill:#decd87;fill-opacity:1;stroke:none;stroke-width:0.26458332"
           d="m 105.24904,142.52114 h -0.79375 q -0.69453,0 -1.55442,0.0661 -0.5402,0.0441 -0.74966,0.0441 -0.73863,0 -1.20165,-0.34175 -0.46302,-0.34176 -0.46302,-0.89297 0,-0.38585 0.19844,-0.59532 0.20946,-0.22048 0.67248,-0.35277 0.44098,-0.11025 0.59532,-0.35278 0.15434,-0.25356 0.24253,-0.97014 0.0882,-0.82682 0.15434,-3.2191 0.0772,-2.39227 0.0772,-4.75147 0,-0.92604 -0.14332,-1.23472 -0.14331,-0.30869 -0.67248,-0.4961 -0.76068,-0.28663 -0.76068,-0.98116 0,-0.54019 0.51815,-0.83785 0.52916,-0.30868 1.46623,-0.30868 0.30868,0 0.7276,0.011 0.92605,0.0331 1.34497,0.0331 1.57648,0 3.56085,-0.0992 0.41892,-0.0221 1.04731,-0.0221 2.52457,0 3.9908,0.57326 2.18281,0.8599 3.28524,2.88837 0.98116,1.78594 0.98116,4.25538 0,1.24575 -0.3638,2.50252 -0.3638,1.24575 -0.98116,2.16077 -1.27882,1.85208 -3.52778,2.60173 -1.32292,0.44097 -2.82222,0.44097 l -1.33394,-0.0441 -1.14653,-0.0331 q -1.33394,-0.0441 -2.34818,-0.0441 z m 2.31511,-11.95035 v 8.53281 q 0,0.69453 0.29765,0.99219 0.29766,0.28663 0.99219,0.28663 3.2191,0 3.2191,-4.89479 0,-2.70096 -0.74965,-4.18924 -0.82683,-1.64262 -2.80018,-1.64262 -0.52916,0 -0.74965,0.20946 -0.20946,0.20947 -0.20946,0.70556 z"
           inkscape:connector-curvature="0" />
        <path
           id="path833"
           style="font-style:normal;font-variant:normal;font-weight:normal;font-stretch:normal;font-size:22.57777786px;line-height:1.25;font-family:'Cooper Black';-inkscape-font-specification:'Cooper Black, ';letter-spacing:0px;word-spacing:0px;fill:#5fd38d;fill-opacity:1;stroke:none;stroke-width:0.26458332"
           d="m 129.01745,145.69614 h -0.79375 q -0.69454,0 -1.55443,0.0661 -0.54019,0.0441 -0.74965,0.0441 -0.73863,0 -1.20165,-0.34175 -0.46303,-0.34176 -0.46303,-0.89297 0,-0.38585 0.19844,-0.59532 0.20946,-0.22048 0.67249,-0.35277 0.44097,-0.11025 0.59531,-0.35278 0.15434,-0.25356 0.24253,-0.97014 0.0882,-0.82682 0.15434,-3.2191 0.0772,-2.39227 0.0772,-4.75147 0,-0.92604 -0.14331,-1.23472 -0.14332,-0.30869 -0.67249,-0.4961 -0.76067,-0.28663 -0.76067,-0.98116 0,-0.54019 0.51814,-0.83785 0.52917,-0.30868 1.46623,-0.30868 0.30868,0 0.72761,0.011 0.92604,0.0331 1.34496,0.0331 1.57648,0 3.56085,-0.0992 0.41893,-0.0221 1.04731,-0.0221 2.52457,0 3.9908,0.57326 2.18281,0.8599 3.28524,2.88837 0.98117,1.78594 0.98117,4.25538 0,1.24575 -0.36381,2.50252 -0.3638,1.24575 -0.98116,2.16077 -1.27882,1.85208 -3.52778,2.60173 -1.32291,0.44097 -2.82222,0.44097 l -1.33394,-0.0441 -1.14653,-0.0331 q -1.33394,-0.0441 -2.34817,-0.0441 z m 2.3151,-11.95035 v 8.53281 q 0,0.69453 0.29766,0.99219 0.29765,0.28663 0.99218,0.28663 3.2191,0 3.2191,-4.89479 0,-2.70096 -0.74965,-4.18924 -0.82683,-1.64262 -2.80018,-1.64262 -0.52916,0 -0.74965,0.20946 -0.20946,0.20947 -0.20946,0.70556 z"
           inkscape:connector-curvature="0" />
        <path
           id="path854"
           style="font-style:normal;font-variant:normal;font-weight:normal;font-stretch:normal;font-size:22.57777786px;line-height:1.25;font-family:'Cooper Black';-inkscape-font-specification:'Cooper Black, ';letter-spacing:0px;word-spacing:0px;fill:#2ca05a;fill-opacity:1;stroke:none;stroke-width:0.26458332"
           d="m 155.33246,135.96167 2.0836,4.46484 q 0.29765,0.61737 0.49609,0.8158 0.19844,0.18742 0.60634,0.25356 0.79375,0.12127 0.79375,0.80478 0,0.80477 -0.97014,1.15755 -0.97014,0.35278 -3.175,0.35278 -2.4915,0 -3.69314,-0.20947 -0.55122,-0.0992 -0.88195,-0.39687 -0.3197,-0.30868 -0.3197,-0.73863 0,-0.33073 0.16536,-0.50712 0.17639,-0.18741 0.63941,-0.34175 0.51814,-0.17639 0.51814,-0.59531 0,-0.73863 -0.89297,-0.87092 -0.95911,-0.13229 -2.70095,-0.13229 -1.46623,0 -1.75287,0.17638 -0.17638,0.11025 -0.30868,0.39688 -0.13229,0.28663 -0.13229,0.55121 0,0.24254 0.0882,0.31971 0.0992,0.0661 0.61736,0.23151 0.67248,0.19844 0.67248,0.79375 0,1.31189 -3.14193,1.31189 -1.78593,0 -2.62378,-0.24253 -0.7717,-0.23151 -0.7717,-1.01424 0,-0.34175 0.16536,-0.52917 0.17639,-0.18741 0.61736,-0.34175 0.71658,-0.25356 1.08039,-0.70555 0.37482,-0.46303 1.05833,-1.96233 l 1.55443,-3.40651 q 0.85989,-1.87413 1.14652,-2.80017 0.29766,-0.93707 0.30868,-1.83004 0.011,-0.94809 0.11025,-1.31189 0.11024,-0.37483 0.47404,-0.72761 0.76068,-0.7717 1.94028,-0.7717 1.11345,0 2.12769,0.87092 1.41111,1.19063 4.10104,6.93429 z m -7.67291,1.38906 h 2.16076 q 0.59531,0 0.59531,-0.26458 0,-0.3638 -0.82682,-1.78594 -0.37483,-0.65043 -0.57326,-0.87092 -0.19844,-0.22048 -0.41893,-0.22048 -0.39687,0 -0.66146,0.73862 -0.0441,0.0992 -0.3197,0.78273 -0.46302,1.12448 -0.46302,1.34497 0,0.2756 0.50712,0.2756 z"
           inkscape:connector-curvature="0" />
        <path
           id="path835"
           style="font-style:normal;font-variant:normal;font-weight:normal;font-stretch:normal;font-size:22.57777786px;line-height:1.25;font-family:'Cooper Black';-inkscape-font-specification:'Cooper Black, ';letter-spacing:0px;word-spacing:0px;fill:#5fd38d;fill-opacity:1;stroke:none;stroke-width:0.26458332"
           d="m 156.3908,135.43251 2.08359,4.46485 q 0.29766,0.61736 0.49609,0.81579 0.19844,0.18742 0.60634,0.25356 0.79375,0.12127 0.79375,0.80478 0,0.80477 -0.97014,1.15755 -0.97014,0.35278 -3.175,0.35278 -2.49149,0 -3.69314,-0.20946 -0.55122,-0.0992 -0.88194,-0.39688 -0.31971,-0.30868 -0.31971,-0.73863 0,-0.33073 0.16537,-0.50712 0.17638,-0.18741 0.6394,-0.34175 0.51815,-0.17639 0.51815,-0.59531 0,-0.73863 -0.89297,-0.87092 -0.95912,-0.13229 -2.70096,-0.13229 -1.46623,0 -1.75286,0.17638 -0.17639,0.11025 -0.30868,0.39688 -0.13229,0.28663 -0.13229,0.55121 0,0.24254 0.0882,0.31971 0.0992,0.0662 0.61736,0.23151 0.67249,0.19844 0.67249,0.79375 0,1.31189 -3.14193,1.31189 -1.78594,0 -2.62379,-0.24253 -0.7717,-0.23151 -0.7717,-1.01424 0,-0.34175 0.16537,-0.52916 0.17639,-0.18742 0.61736,-0.34176 0.71658,-0.25356 1.08038,-0.70555 0.37483,-0.46302 1.05833,-1.96233 l 1.55443,-3.40651 q 0.8599,-1.87413 1.14653,-2.80017 0.29765,-0.93707 0.30868,-1.83004 0.011,-0.94809 0.11024,-1.31189 0.11024,-0.37483 0.47405,-0.72761 0.76067,-0.7717 1.94027,-0.7717 1.11346,0 2.1277,0.87092 1.41111,1.19063 4.10104,6.93429 z m -7.67292,1.38906 h 2.16076 q 0.59532,0 0.59532,-0.26458 0,-0.3638 -0.82683,-1.78594 -0.37482,-0.65043 -0.57326,-0.87092 -0.19844,-0.22048 -0.41892,-0.22048 -0.39688,0 -0.66146,0.73863 -0.0441,0.0992 -0.31971,0.78272 -0.46302,1.12448 -0.46302,1.34497 0,0.2756 0.50712,0.2756 z"
           inkscape:connector-curvature="0" />
        <path
           id="path837"
           style="font-style:normal;font-variant:normal;font-weight:normal;font-stretch:normal;font-size:22.57777786px;line-height:1.25;font-family:'Cooper Black';-inkscape-font-specification:'Cooper Black, ';letter-spacing:0px;word-spacing:0px;fill:#5fd38d;fill-opacity:1;stroke:none;stroke-width:0.26458332"
           d="m 162.6967,130.41645 q 2.16076,0 3.29627,0.23151 0.51814,0.0992 0.82682,0.39687 0.3197,0.28664 0.3197,0.66146 0,0.28663 -0.24253,0.58429 -0.35278,0.452 -0.35278,0.65043 0,0.39688 0.62839,1.2678 0.4079,0.56224 0.7717,0.56224 0.23151,0 0.45199,-0.16536 0.22049,-0.17639 0.57327,-0.61737 0.42995,-0.54019 0.42995,-0.85989 0,-0.19844 -0.0551,-0.29766 -0.0441,-0.0992 -0.35277,-0.47404 -0.22049,-0.25356 -0.22049,-0.68351 0,-1.24575 3.37344,-1.24575 1.9072,0 2.48047,0.17639 0.3638,0.11025 0.59531,0.41893 0.24253,0.30868 0.24253,0.66145 0,0.452 -0.2756,0.68351 -0.27561,0.23151 -0.95912,0.35278 -0.62838,0.12127 -1.0914,0.48507 -0.46303,0.35278 -1.69775,1.67569 -1.4993,1.62058 -1.87413,2.39228 -0.3638,0.76067 -0.3638,2.28203 0,1.27882 0.0992,2.37022 0.0551,0.67249 0.20946,0.93707 0.15434,0.25356 0.63941,0.50712 0.80477,0.41892 0.80477,1.04731 0,1.4993 -4.43177,1.4993 -1.81901,0 -3.43958,-0.35278 -1.36701,-0.29765 -1.36701,-1.1796 0,-0.6835 0.83784,-0.98116 0.62839,-0.22049 0.78273,-0.56224 0.35278,-0.76068 0.35278,-3.59392 0,-0.88195 -0.17639,-1.36702 -0.17639,-0.49609 -0.7717,-1.27882 -1.24575,-1.62057 -2.56867,-2.92144 -0.57326,-0.56224 -1.10243,-0.76067 -0.74965,-0.27561 -0.90399,-0.4079 -0.30868,-0.26459 -0.30868,-0.70556 0,-0.73863 1.11345,-1.05833 1.11346,-0.33073 3.72622,-0.33073 z"
           inkscape:connector-curvature="0" />
        <path
           id="path858"
           style="font-style:normal;font-variant:normal;font-weight:normal;font-stretch:normal;font-size:22.57777786px;line-height:1.25;font-family:'Cooper Black';-inkscape-font-specification:'Cooper Black, ';letter-spacing:0px;word-spacing:0px;fill:#2ca05a;fill-opacity:1;stroke:none;stroke-width:0.26458332"
           d="m 181.87348,129.81012 q 1.1355,0 2.97656,0.56224 0.22049,0.0661 0.35278,0.0661 0.11024,0 0.66146,-0.19843 0.17639,-0.0662 0.37483,-0.0662 0.73862,0 1.55442,1.16858 0.82683,1.16857 0.82683,2.22691 0,0.61736 -0.37483,1.04731 -0.3638,0.41892 -0.89297,0.41892 -0.44097,0 -0.71658,-0.17639 -0.27561,-0.17639 -1.21267,-1.04731 -1.32292,-1.23472 -2.60174,-1.23472 -0.61736,0 -0.99219,0.29766 -0.3638,0.29765 -0.3638,0.78272 0,0.95912 1.68672,1.44419 2.28203,0.67248 2.92144,0.98116 2.8112,1.36701 2.8112,4.02387 0,2.34818 -1.91823,3.83646 -1.96233,1.52135 -5.1263,1.52135 -1.41111,0 -2.97657,-0.33073 -1.56545,-0.34175 -2.25998,-0.79375 -0.52916,-0.35277 -0.95911,-1.53238 -0.41893,-1.19062 -0.41893,-2.3151 0,-0.54019 0.22049,-0.8158 0.27561,-0.35278 0.69453,-0.35278 0.41893,0 0.80478,0.42995 0.23151,0.24254 1.0914,1.55443 0.4079,0.61736 1.28985,1.02526 0.89296,0.4079 1.84105,0.4079 0.8158,0 1.32292,-0.29766 0.50712,-0.30868 0.50712,-0.78272 0,-0.44098 -0.39688,-0.76068 -0.39687,-0.31971 -1.28984,-0.59531 -1.57647,-0.4961 -2.4033,-0.904 -0.82682,-0.41892 -1.5434,-1.0473 -1.74184,-1.54341 -1.74184,-3.50573 0,-0.97014 0.452,-1.88516 0.45199,-0.92604 1.27882,-1.59852 1.85208,-1.55443 4.51996,-1.55443 z"
           inkscape:connector-curvature="0" />
        <path
           id="path839"
           style="font-style:normal;font-variant:normal;font-weight:normal;font-stretch:normal;font-size:22.57777786px;line-height:1.25;font-family:'Cooper Black';-inkscape-font-specification:'Cooper Black, ';letter-spacing:0px;word-spacing:0px;fill:#5fd38d;fill-opacity:1;stroke:none;stroke-width:0.26458332"
           d="m 182.93181,129.28096 q 1.13551,0 2.97657,0.56224 0.22048,0.0661 0.35277,0.0661 0.11025,0 0.66146,-0.19843 0.17639,-0.0661 0.37483,-0.0661 0.73863,0 1.55443,1.16858 0.82682,1.16857 0.82682,2.22691 0,0.61736 -0.37483,1.04731 -0.3638,0.41892 -0.89297,0.41892 -0.44097,0 -0.71658,-0.17639 -0.2756,-0.17639 -1.21267,-1.04731 -1.32292,-1.23472 -2.60174,-1.23472 -0.61736,0 -0.99218,0.29766 -0.3638,0.29765 -0.3638,0.78272 0,0.95912 1.68671,1.44419 2.28204,0.67248 2.92145,0.98116 2.81119,1.36701 2.81119,4.02387 0,2.34818 -1.91823,3.83646 -1.96232,1.52135 -5.1263,1.52135 -1.41111,0 -2.97656,-0.33073 -1.56545,-0.34175 -2.25998,-0.79375 -0.52917,-0.35277 -0.95912,-1.53237 -0.41892,-1.19063 -0.41892,-2.31511 0,-0.54019 0.22048,-0.8158 0.27561,-0.35278 0.69454,-0.35278 0.41892,0 0.80477,0.42995 0.23151,0.24254 1.09141,1.55443 0.4079,0.61736 1.28984,1.02526 0.89297,0.4079 1.84106,0.4079 0.8158,0 1.32292,-0.29766 0.50711,-0.30868 0.50711,-0.78272 0,-0.44097 -0.39687,-0.76068 -0.39688,-0.3197 -1.28984,-0.59531 -1.57648,-0.4961 -2.4033,-0.904 -0.82683,-0.41892 -1.54341,-1.0473 -1.74184,-1.54341 -1.74184,-3.50573 0,-0.97014 0.452,-1.88516 0.452,-0.92604 1.27882,-1.59852 1.85208,-1.55443 4.51996,-1.55443 z"
           inkscape:connector-curvature="0" />
      </g>
    </g>
  </g>
</svg>
